<svg id="Layer_1" data-name="Layer 1" xmlns="http://www.w3.org/2000/svg" viewBox="0 0 1078.98 178.25"><defs><style>.cls-1{fill:#fff;}</style></defs><path class="cls-1" d="M42-342.35a45.65,45.65,0,0,1,12.5,15.5,43.61,43.61,0,0,1,4.62,19.75,43.6,43.6,0,0,1-6.75,23.88q-6.75,10.62-19.62,16.75T2.38-260.35h-65V-434.6H-.12q17.75,0,30.25,5.88t18.75,15.87a41.65,41.65,0,0,1,6.25,22.5q0,15.51-8.37,25.63A46.94,46.94,0,0,1,24.63-350.1,36.91,36.91,0,0,1,42-342.35Zm-81.88-17H-1.62q16,0,24.75-7.5t8.75-20.75q0-13.25-8.75-20.75t-25.25-7.5H-39.87ZM26.88-287.1q9.5-8,9.5-22.25,0-14.49-10-22.87T-.37-340.6h-39.5v61.5H.38Q17.38-279.1,26.88-287.1Z" transform="translate(62.62 436.85)"/><path class="cls-1" d="M181.13-299.1h-76l-14,38.75h-24l63-173.25h26.25l62.75,173.25h-24Zm-6.5-18.5-31.5-88-31.5,88Z" transform="translate(62.62 436.85)"/><path class="cls-1" d="M256.38-434.6v110.25q0,23.25,11.37,34.5t31.63,11.25q20,0,31.37-11.25t11.38-34.5V-434.6h22.75v110q0,21.75-8.75,36.63a55,55,0,0,1-23.63,22.12q-14.88,7.26-33.37,7.25t-33.38-7.25A54.17,54.17,0,0,1,242.25-288q-8.62-14.88-8.62-36.63v-110Z" transform="translate(62.62 436.85)"/><path class="cls-1" d="M386.62-263.35a15,15,0,0,1-4.5-11,15,15,0,0,1,4.5-11,15,15,0,0,1,11-4.5,14.28,14.28,0,0,1,10.63,4.5,15.21,15.21,0,0,1,4.37,11,15.2,15.2,0,0,1-4.37,11,14.28,14.28,0,0,1-10.63,4.5A15,15,0,0,1,386.62-263.35Z" transform="translate(62.62 436.85)"/><path class="cls-1" d="M564.62-434.6v174.25H541.87v-79H453.12v79H430.37V-434.6h22.75v76.5h88.75v-76.5Z" transform="translate(62.62 436.85)"/><path class="cls-1" d="M693.87-299.1h-76l-14,38.75h-24l63-173.25h26.25l62.75,173.25h-24Zm-6.5-18.5-31.5-88-31.5,88Z" transform="translate(62.62 436.85)"/><path class="cls-1" d="M769.12-434.6v110.25q0,23.25,11.37,34.5t31.63,11.25q20,0,31.37-11.25t11.38-34.5V-434.6h22.75v110q0,21.75-8.75,36.63a55,55,0,0,1-23.63,22.12q-14.87,7.26-33.37,7.25t-33.38-7.25A54.22,54.22,0,0,1,755-288q-8.62-14.88-8.62-36.63v-110Z" transform="translate(62.62 436.85)"/><path class="cls-1" d="M927.49-264.72q-13.63-6.13-21.37-17a43.5,43.5,0,0,1-8-25.13h24.25a31.91,31.91,0,0,0,10.12,20.63q8.87,8.37,25.88,8.37,16.25,0,25.62-8.12a26.39,26.39,0,0,0,9.38-20.88q0-10-5.5-16.25a35.27,35.27,0,0,0-13.75-9.5,216.76,216.76,0,0,0-22.25-7,195.76,195.76,0,0,1-27.63-9,44.47,44.47,0,0,1-17.75-14.12q-7.38-9.63-7.37-25.88a44.8,44.8,0,0,1,7.25-25.25,47.22,47.22,0,0,1,20.37-17q13.13-6,30.13-6,24.5,0,40.12,12.25t17.63,32.5h-25q-1.26-10-10.5-17.62t-24.5-7.63q-14.25,0-23.25,7.38t-9,20.62q0,9.51,5.37,15.5A34.71,34.71,0,0,0,941-364.72q7.88,3.12,22.13,7.12a207.24,207.24,0,0,1,27.75,9.38,46.23,46.23,0,0,1,18,14.25q7.5,9.62,7.5,26.12a45.88,45.88,0,0,1-6.75,24q-6.75,11.25-20,18.25t-31.25,7Q941.12-258.6,927.49-264.72Z" transform="translate(62.62 436.85)"/></svg>