<svg id="Layer_1" data-name="Layer 1" xmlns="http://www.w3.org/2000/svg" viewBox="0 0 866.99 210"><defs><style>.cls-1{fill:#fff;}</style></defs><path class="cls-1" d="M71.63-734.6v174.25H48.88v-79H-39.87v79H-62.62V-734.6h22.75v76.5H48.88v-76.5Z" transform="translate(62.62 747.99)"/><path class="cls-1" d="M120.63-716.1v58.25h63.5v18.75h-63.5v60h71v18.75H97.88v-174.5h93.75v18.75Z" transform="translate(62.62 747.99)"/><path class="cls-1" d="M236.37-578.85h61v18.5H213.62V-734.6h22.75Z" transform="translate(62.62 747.99)"/><path class="cls-1" d="M331.87-578.85h61v18.5H309.12V-734.6h22.75Z" transform="translate(62.62 747.99)"/><path class="cls-1" d="M439.37-570a83.3,83.3,0,0,1-31.63-31.75q-11.62-20.38-11.62-45.88t11.62-45.87a83.16,83.16,0,0,1,31.63-31.75,87.85,87.85,0,0,1,44.25-11.38q24.5,0,44.5,11.38a82.63,82.63,0,0,1,31.5,31.62q11.49,20.25,11.5,46t-11.5,46A82.73,82.73,0,0,1,528.12-570q-20,11.37-44.5,11.37A87.94,87.94,0,0,1,439.37-570Zm77.12-16.88a59.76,59.76,0,0,0,23-24.25q8.38-15.75,8.38-36.5,0-21-8.38-36.62a60.31,60.31,0,0,0-22.87-24.13q-14.5-8.49-33-8.5t-33,8.5a60.33,60.33,0,0,0-22.88,24.13q-8.37,15.62-8.37,36.62,0,20.76,8.37,36.5a59.83,59.83,0,0,0,23,24.25,64.19,64.19,0,0,0,32.88,8.5A64.18,64.18,0,0,0,516.49-586.85Z" transform="translate(62.62 747.99)"/><path class="cls-1" d="M761.87-737.49a75.2,75.2,0,0,1,31.5,29.38q11,18.87,11,43.62a111.47,111.47,0,0,1-6.5,37.88q-6.51,18.12-18.88,29.37A41.57,41.57,0,0,1,750.12-586q-12.51,0-19.25-6.25t-7.75-17a55.92,55.92,0,0,1-19.63,17A53.12,53.12,0,0,1,678.37-586q-19,0-29.88-11.62T637.62-629a79.21,79.21,0,0,1,7.87-35,67.08,67.08,0,0,1,21.88-26.12A53.68,53.68,0,0,1,699.12-700q23.75,0,32,18l2.75-15.5h19.75l-12.5,72.25a56.51,56.51,0,0,0-.75,8.75q0,15,13.25,15,10,0,17.37-9.5t11.13-23.87a112.12,112.12,0,0,0,3.75-28.38q0-32.75-19.63-50.75t-55.37-18q-29.76,0-53.63,14.38a101.2,101.2,0,0,0-37.37,39.37q-13.5,25-13.5,55.25-.25,33,19.75,50.88t55.5,17.87q23.49,0,41.5-8.5l3,15.5q-22.26,9.24-49,9.25T630-548.11a73.8,73.8,0,0,1-31.5-29Q587.38-596,587.37-621q0-35.25,16.25-64.37a119.3,119.3,0,0,1,45.12-45.88Q677.62-748,713.62-748,741.37-748,761.87-737.49Zm-56,127.13a45.74,45.74,0,0,0,15-18,56.52,56.52,0,0,0,5.5-24.88q0-13-7.13-21.12t-20.12-8.13A33.39,33.39,0,0,0,678-675.36a46.62,46.62,0,0,0-14.12,18.75,60.33,60.33,0,0,0-5,24.12q0,13.26,6.75,21t19.5,7.75A35.58,35.58,0,0,0,705.87-610.36Z" transform="translate(62.62 747.99)"/></svg>