<svg id="Layer_1" data-name="Layer 1" xmlns="http://www.w3.org/2000/svg" viewBox="0 0 797.98 178.25"><defs><style>.cls-1{fill:#fff;}</style></defs><path class="cls-1" d="M853.74-564.72q-13.63-6.13-21.37-17a43.5,43.5,0,0,1-8-25.13h24.25a31.91,31.91,0,0,0,10.12,20.63q8.87,8.37,25.88,8.37,16.25,0,25.62-8.12a26.39,26.39,0,0,0,9.38-20.88q0-10-5.5-16.25a35.27,35.27,0,0,0-13.75-9.5,216.76,216.76,0,0,0-22.25-7,195.76,195.76,0,0,1-27.63-9,44.47,44.47,0,0,1-17.75-14.12q-7.38-9.63-7.37-25.88a44.8,44.8,0,0,1,7.25-25.25,47.22,47.22,0,0,1,20.37-17q13.13-6,30.13-6,24.5,0,40.12,12.25t17.63,32.5h-25q-1.26-10-10.5-17.62t-24.5-7.63q-14.25,0-23.25,7.38t-9,20.62q0,9.51,5.37,15.5a34.71,34.71,0,0,0,13.25,9.13q7.88,3.12,22.13,7.12a207.24,207.24,0,0,1,27.75,9.38,46.23,46.23,0,0,1,18,14.25q7.5,9.62,7.5,26.12a45.88,45.88,0,0,1-6.75,24q-6.75,11.25-20,18.25t-31.25,7Q867.37-558.6,853.74-564.72Z" transform="translate(-824.37 736.85)"/><path class="cls-1" d="M1070.86-734.6v18.5h-47.5v155.75h-22.75V-716.1H952.86v-18.5Z" transform="translate(-824.37 736.85)"/><path class="cls-1" d="M1108.61-734.6v110.25q0,23.25,11.37,34.5t31.63,11.25q20,0,31.37-11.25t11.38-34.5V-734.6h22.75v110q0,21.75-8.75,36.63a55,55,0,0,1-23.63,22.12q-14.87,7.26-33.37,7.25T1118-565.85a54.22,54.22,0,0,1-23.5-22.12q-8.62-14.88-8.62-36.63v-110Z" transform="translate(-824.37 736.85)"/><path class="cls-1" d="M1346.23-724a74.74,74.74,0,0,1,32,30.37q11.12,19.76,11.13,46.5t-11.13,46.38a73.47,73.47,0,0,1-32,30q-20.88,10.37-49.37,10.37h-54.25V-734.6h54.25Q1325.36-734.6,1346.23-724Zm2.13,127q17.75-17.88,17.75-50.13,0-32.49-17.88-50.75t-51.37-18.25h-31.5v137h31.5Q1330.61-579.1,1348.36-597Z" transform="translate(-824.37 736.85)"/><path class="cls-1" d="M1429.6-734.6v174.25h-22.75V-734.6Z" transform="translate(-824.37 736.85)"/><path class="cls-1" d="M1490.6-570A83.3,83.3,0,0,1,1459-601.72q-11.62-20.38-11.62-45.88T1459-693.47a83.16,83.16,0,0,1,31.63-31.75,87.85,87.85,0,0,1,44.25-11.38q24.5,0,44.5,11.38a82.63,82.63,0,0,1,31.5,31.62q11.49,20.25,11.5,46t-11.5,46a82.73,82.73,0,0,1-31.5,31.63q-20,11.37-44.5,11.37A87.94,87.94,0,0,1,1490.6-570Zm77.12-16.88a59.76,59.76,0,0,0,23-24.25q8.38-15.75,8.38-36.5,0-21-8.38-36.62a60.31,60.31,0,0,0-22.87-24.13q-14.5-8.49-33-8.5t-33,8.5A60.33,60.33,0,0,0,1479-684.22q-8.37,15.62-8.37,36.62,0,20.76,8.37,36.5a59.83,59.83,0,0,0,23,24.25,64.19,64.19,0,0,0,32.88,8.5A64.18,64.18,0,0,0,1567.72-586.85Z" transform="translate(-824.37 736.85)"/></svg>